<svg xmlns="http://www.w3.org/2000/svg" width="474" height="471" viewBox="0 0 474 471">
  <metadata><?xpacket begin="﻿" id="W5M0MpCehiHzreSzNTczkc9d"?>
<x:xmpmeta xmlns:x="adobe:ns:meta/" x:xmptk="Adobe XMP Core 5.6-c111 79.158325, 2015/09/10-01:10:20        ">
   <rdf:RDF xmlns:rdf="http://www.w3.org/1999/02/22-rdf-syntax-ns#">
      <rdf:Description rdf:about=""
            xmlns:xmp="http://ns.adobe.com/xap/1.0/">
         <xmp:CreatorTool>Adobe Photoshop CC 2014 (Windows)</xmp:CreatorTool>
      </rdf:Description>
   </rdf:RDF>
</x:xmpmeta>
                                                                                                    
                                                                                                    
                                                                                                    
                                                                                                    
                                                                                                    
                                                                                                    
                                                                                                    
                                                                                                    
                                                                                                    
                                                                                                    
                                                                                                    
                                                                                                    
                                                                                                    
                                                                                                    
                                                                                                    
                                                                                                    
                                                                                                    
                                                                                                    
                                                                                                    
                                                                                                    
                           
<?xpacket end="w"?></metadata>
<defs>
    <style>
      .cls-1 {
        fill: #72f86f;
        fill-rule: nonzero;
      }
    </style>
  </defs>
  <path id="Фигура_1" data-name="Фигура 1" class="cls-1" d="M952.843,1854V1624.61H722v-12.23H952.843V1383h12.313v229.38H1196v12.23H965.156V1854H952.843ZM959,1828.67a210.538,210.538,0,1,1,149.059-61.49A209.86,209.86,0,0,1,959,1828.67Zm0-390.13c-99.773,0-180.943,80.73-180.943,179.96S859.228,1798.45,959,1798.45s180.939-80.72,180.939-179.95S1058.77,1438.54,959,1438.54Zm0,287.64c-59.091,0-107.165-48.31-107.165-107.68S899.909,1510.82,959,1510.82s107.16,48.3,107.16,107.68S1018.09,1726.18,959,1726.18Zm0-191.17c-45.665,0-82.816,37.46-82.816,83.49s37.151,83.48,82.816,83.48,82.82-37.45,82.82-83.48S1004.66,1535.01,959,1535.01Zm24.761,83.49A24.762,24.762,0,1,1,959,1593.92,24.668,24.668,0,0,1,983.761,1618.5Z" transform="translate(-722 -1383)"/>
</svg>
